<?xml version="1.0" encoding="UTF-8"?>
<svg xmlns="http://www.w3.org/2000/svg" viewBox="0 0 315.79 315.79">
  <style>
    .bg { fill: #ffffff; stroke: #ffffff; }
    .fg { fill: #010101; }
    @media (prefers-color-scheme: dark) {
      .bg { fill: #010101; stroke: #010101; }
      .fg { fill: #ffffff; }
    }
  </style>
  <rect class="bg" width="315.79" height="315.79" rx="62" ry="62" stroke-width="72"/>
  <g transform="translate(40 40) scale(0.747)">
    <path class="fg" d="M315.79,61.98h0c0-8.68,0-13.02-.51-16.66-3.27-23.26-21.55-41.54-44.8-44.8-3.64-.51-7.98-.51-16.66-.51H84.21c-29.48,0-44.22,0-55.47,5.74-9.9,5.05-17.96,13.1-23,23C0,40,0,54.73,0,84.21v147.37c0,29.48,0,44.22,5.74,55.47,5.05,9.9,13.1,17.96,23,23,11.26,5.74,26,5.74,55.47,5.74h147.37c29.48,0,44.22,0,55.47-5.74,9.9-5.05,17.96-13.1,23-23,5.74-11.26,5.74-26,5.74-55.47v-20.46c0-29.48,0-44.22-5.74-55.47-5.05-9.9-13.1-17.96-23-23-11.26-5.74-26-5.74-55.47-5.74h-75.02l25.69,30.99-25.67,30.98h71.13c9.83,0,14.74,0,18.49,1.91,3.3,1.68,5.99,4.37,7.67,7.67,1.91,3.75,1.91,8.67,1.91,18.49v8.79c0,9.83,0,14.74-1.91,18.49-1.68,3.3-4.37,5.99-7.67,7.67-3.75,1.91-8.67,1.91-18.49,1.91H88.08c-9.83,0-14.74,0-18.49-1.91-3.3-1.68-5.99-4.37-7.67-7.67-1.91-3.75-1.91-8.67-1.91-18.49v-9.05c0-3.97,0-5.95.4-7.84.35-1.68.94-3.3,1.74-4.82.9-1.71,2.17-3.24,4.71-6.28l33.42-40.2-33.42-40.21c-2.53-3.05-3.8-4.57-4.7-6.28-.8-1.52-1.39-3.14-1.74-4.82-.4-1.89-.4-3.87-.4-7.84v-8.36c0-9.83,0-14.74,1.91-18.49,1.68-3.3,4.37-5.99,7.67-7.67,3.75-1.91,8.67-1.91,18.49-1.91h227.71Z"/>
  </g>
</svg>
